<svg width="16" height="17" viewBox="0 0 16 17" fill="none" xmlns="http://www.w3.org/2000/svg">
<path d="M6.83308 15.1179C6.71033 15.8141 7.17692 16.4889 7.88377 16.4992C9.1323 16.5173 10.374 16.2429 11.507 15.6904C13.0254 14.9498 14.2704 13.7475 15.0636 12.2558C15.8567 10.7641 16.1573 9.05961 15.9221 7.38662C15.687 5.71362 14.9283 4.15801 13.7547 2.94273C12.5811 1.72746 11.053 0.914905 9.38918 0.621538C7.72542 0.328171 6.01148 0.569049 4.49303 1.30965C2.97458 2.05025 1.72956 3.25255 0.936419 4.74423C0.344653 5.85718 0.0271007 7.08859 0.00165245 8.337C-0.0127549 9.04377 0.645354 9.53363 1.3454 9.43524C2.04544 9.33686 2.51734 8.68403 2.58487 7.98034C2.65279 7.27271 2.85915 6.58104 3.19676 5.94607C3.7361 4.93173 4.58271 4.11417 5.61526 3.61056C6.64781 3.10695 7.81328 2.94316 8.94465 3.14265C10.076 3.34214 11.1152 3.89467 11.9132 4.72106C12.7112 5.54745 13.2272 6.60526 13.3871 7.7429C13.5469 8.88053 13.3426 10.0396 12.8032 11.0539C12.2639 12.0683 11.4173 12.8858 10.3847 13.3894C9.73838 13.7047 9.03992 13.8868 8.33036 13.93C7.62474 13.9729 6.95584 14.4217 6.83308 15.1179Z" fill="#239735"/>
</svg>
